# xmcd CD database file
#
# Track frame offsets:
#	150
#	20209
#	52528
#	68268
#	84008
#	101281
#	129839
#	159790
#	191413
#
# Disc length: 2983 seconds
#
# Revision: 0
# Processed by: cddbd v1.5.2PL0 Copyright (c) Steve Scherf et al.
# Submitted via: jetAudio 7
#
DISCID=510ba509
DTITLE=刘健 - Black Pearls 黑珍珠
DYEAR=1900
DGENRE=Folk
TTITLE0=Black Pearls 黑珍珠
TTITLE1=Fight Of Star And Moon 星月梭
TTITLE2=The Girl Named Leaves 叶娜
TTITLE3=From The Heavenly Cave:I 司岗里 Part.1
TTITLE4=From The Heavenly Cave:II 司岗里 Part.2
TTITLE5=Dance Of Wooden Drums 木鼓房
TTITLE6=Rites Of Blood 祭谷
TTITLE7=The Elder's Judgement 阿瓦理
TTITLE8=Swallow 燕子
EXTD=
EXTT0=
EXTT1=
EXTT2=
EXTT3=
EXTT4=
EXTT5=
EXTT6=
EXTT7=
EXTT8=
PLAYORDER=
